<?xml version="1.0" encoding="utf-8"?>
<!-- Generator: Adobe Illustrator 22.1.0, SVG Export Plug-In . SVG Version: 6.00 Build 0)  -->
<svg version="1.1" id="Layer_1" xmlns="http://www.w3.org/2000/svg" xmlns:xlink="http://www.w3.org/1999/xlink" x="0px" y="0px"
	 viewBox="0 0 884 130" style="enable-background:new 0 0 884 130;" xml:space="preserve">
<style type="text/css">
	.st0{fill:#F55F4E;}
</style>
<g>
	<g>
		<path class="st0" d="M83.9,126.8v-1.8c8.3-3.6,12.3-10.3,12.3-21.7V78.2H48v25.2c0,11,4.8,18.1,12.4,21.7v1.8H0v-1.8
			c7.6-3.6,12.4-10.7,12.4-21.7V26.1C12.4,13,6.6,6.7,0,4.3V2.5h60.4v1.8C53.7,6.6,48,13,48,26.1v23.6h48.1V26.1
			c0.2-12.4-3.6-19-12.3-21.9V2.5h60.2v1.8c-8.2,3-12.3,9.6-12.3,21.9v77.3c0,11.7,3.2,18.1,12.3,21.7v1.8H83.9z"/>
		<path class="st0" d="M228.7,126.8v-1.8c6.8-2.8,12.6-12.8,8.2-27.5h-45.5c-4.4,14.7,1.4,24.7,8.2,27.5v1.8h-57.2v-1.8
			c4.1-3,6.8-7.3,11.5-19.2c5.5-13.7,19.9-59.3,24.7-74.1c6.4-19.4-0.7-26.1-6-27.5V2.5h86.7v1.8c-5.3,1.4-12.4,8.2-6,27.5
			c4.8,14.7,20.6,63.1,24.7,74.1c4.6,12.4,8.9,17.1,11.5,19.2v1.8H228.7z M215.5,31.1h-2.8L199.2,73h29.7L215.5,31.1z"/>
		<path class="st0" d="M287.7,126.8v-1.8c8.4-3.6,12.3-9.8,12.3-21.7V25.9c0-10.5-3.2-17.8-12.3-21.7V2.5h78.7
			c35,0,53.3,18.5,53.3,42.1c0,20.6-15.8,36.8-39.8,36.8c-1.1,0-2.3,0-3.6-0.2c7.6,5,14.6,9.4,22.7,9.4c6.8,0,9.4-5.3,9.4-5.3
			c5.2,2.5,11.7,8,11.7,17.9c0,14-8.9,26.1-28.2,26.1c-29.5,0-36.4-43.2-56.5-47.8v21.9c0,11.9,3.9,18.1,12.3,21.7v1.8H287.7z
			 M335.5,30.9v28.4h30.4c11,0,18.3-4.8,18.3-13.9c0-10-7.3-14.6-18.3-14.6H335.5z"/>
		<path class="st0" d="M427.4,126.8v-1.8c8.3-3.6,12.3-9.8,12.3-21.7V25.9c0-10.5-3.2-17.8-12.3-21.7V2.5h78.7
			c35,0,53.3,18.5,53.3,42.1c0,20.6-15.8,36.8-39.8,36.8c-1.1,0-2.3,0-3.6-0.2c7.6,5,14.6,9.4,22.7,9.4c6.8,0,9.4-5.3,9.4-5.3
			c5.2,2.5,11.7,8,11.7,17.9c0,14-8.9,26.1-28.2,26.1c-29.5,0-36.4-43.2-56.5-47.8v21.9c0,11.9,3.9,18.1,12.3,21.7v1.8H427.4z
			 M475.1,30.9v28.4h30.4c11,0,18.3-4.8,18.3-13.9c0-10-7.3-14.6-18.3-14.6H475.1z"/>
		<path class="st0" d="M568.8,126.8v-1.8c8.3-3.6,12.3-9.8,12.3-21.7V25.9c0-11.9-3.9-18.1-12.3-21.7V2.5h60.1v1.8
			c-8.3,3.6-12.3,9.8-12.3,21.7v77.5c0,11.9,3.9,18.1,12.3,21.7v1.8H568.8z"/>
		<path class="st0" d="M632.4,126.8v-1.8c7.8-2.5,12.3-10.1,12.3-21.7V26.1c0-11.9-3.9-19-12.3-21.9V2.5h84.8
			c17.8,0,21.7-2.5,21.7-2.5l7.6,36.8l-1.6,0.5c-3.6-2.8-9.2-6.4-22.4-6.4h-42.3v27.4c4.1-8.2,13.5-13.9,25.9-13.9
			c16.5,0,27.7,8.9,27.7,21.7c0,10.7-9.1,16.2-18.1,16.2c0-5-3.7-9.9-12.8-9.9c-12.1,0-22.7,10.5-22.7,26.1h44.1
			c12.3,0,18.8-4.8,24-9.4l1.4,0.7l-7.3,40.7c0,0-5.5-3.6-23.5-3.6H632.4z"/>
		<path class="st0" d="M751.5,126.8v-1.8c8.3-3.6,12.3-9.8,12.3-21.7V25.9c0-10.5-3.2-17.8-12.3-21.7V2.5h78.7
			c35,0,53.3,18.5,53.3,42.1c0,20.6-15.8,36.8-39.8,36.8c-1.1,0-2.3,0-3.6-0.2c7.6,5,14.6,9.4,22.7,9.4c6.8,0,9.4-5.3,9.4-5.3
			c5.2,2.5,11.7,8,11.7,17.9c0,14-8.9,26.1-28.2,26.1c-29.5,0-36.4-43.2-56.5-47.8v21.9c0,11.9,3.9,18.1,12.3,21.7v1.8H751.5z
			 M799.3,30.9v28.4h30.4c11,0,18.3-4.8,18.3-13.9c0-10-7.3-14.6-18.3-14.6H799.3z"/>
	</g>
</g>
</svg>
