<?xml version="1.0" encoding="utf-8"?>
<!-- Generator: Adobe Illustrator 22.1.0, SVG Export Plug-In . SVG Version: 6.00 Build 0)  -->
<svg version="1.1" id="Layer_1" xmlns="http://www.w3.org/2000/svg" xmlns:xlink="http://www.w3.org/1999/xlink" x="0px" y="0px"
	 viewBox="0 0 454 696" style="enable-background:new 0 0 454 696;" xml:space="preserve">
<style type="text/css">
	.st0{fill:#F55F4E;}
</style>
<path class="st0" d="M56.9,86.9l0.1-1.1c5.5-1.8,8.4-5.8,9.1-13.1l1.5-16.1l-30.6-2.9l-1.5,16.1c-0.7,7,2,11.8,6.6,14.5l-0.1,1.1
	L3.5,82l0.1-1.1c5.1-1.8,8.5-6,9.2-13.1l4.6-49.2c0.8-8.4-2.6-12.7-6.6-14.6l0.1-1.1l38.4,3.6l-0.1,1.1c-4.4,1.1-8.4,4.8-9.2,13.2
	l-1.4,15l30.6,2.9l1.4-15c0.9-7.9-1.1-12.3-6.5-14.6l0.1-1.1l38.3,3.6l-0.1,1.1c-5.4,1.4-8.4,5.4-9.1,13.2l-4.6,49.2
	c-0.7,7.5,1,11.7,6.5,14.5l-0.1,1.1L56.9,86.9z"/>
<path class="st0" d="M132.5,270.2l-0.5-1c3-3.6,3.4-11-3.4-18l-25.8,13.3c1.8,9.7,8,13.6,12.7,13.2l0.5,1l-32.5,16.8l-0.5-1
	c1.4-2.9,1.7-6.1,0.9-14.3c-0.9-9.4-6.1-39.5-7.7-49.3c-2-12.9-8.1-14.6-11.5-13.9l-0.5-1l49.3-25.4l0.5,1
	c-2.6,2.4-4.7,8.3,4.6,17.4c7,7,30.2,29.8,35.7,34.9c6.3,5.7,10,7.1,12.2,7.5l0.5,1L132.5,270.2z M96.9,219.7l-1.6,0.8l4.6,27.8
	l16.9-8.7L96.9,219.7z"/>
<path class="st0" d="M274.9,235.4v-1.1c5.3-2.3,7.8-6.2,7.8-13.9v-49.5c0-6.7-2-11.4-7.8-13.9v-1.1h50.3c22.4,0,34.1,11.8,34.1,26.9
	c0,13.2-10.1,23.5-25.4,23.5c-0.7,0-1.5,0-2.3-0.1c4.9,3.2,9.3,6,14.5,6c4.3,0,6-3.4,6-3.4c3.3,1.6,7.5,5.1,7.5,11.5
	c0,9-5.7,16.7-18.1,16.7c-18.8,0-23.3-27.6-36.1-30.5v14c0,7.6,2.5,11.6,7.8,13.9v1.1H274.9z M305.4,174.1v18.2h19.4
	c7,0,11.7-3.1,11.7-8.9c0-6.4-4.7-9.3-11.7-9.3H305.4z"/>
<path class="st0" d="M141.1,508.4v-1.1c5.3-2.3,7.8-6.2,7.8-13.9v-49.5c0-6.7-2-11.4-7.8-13.9v-1.1h50.3c22.4,0,34.1,11.8,34.1,26.9
	c0,13.2-10.1,23.5-25.4,23.5c-0.7,0-1.5,0-2.3-0.1c4.9,3.2,9.3,6,14.5,6c4.3,0,6-3.4,6-3.4c3.3,1.6,7.5,5.1,7.5,11.5
	c0,9-5.7,16.7-18.1,16.7c-18.9,0-23.3-27.6-36.1-30.5v14c0,7.6,2.5,11.6,7.8,13.9v1.1H141.1z M171.7,447.1v18.2h19.4
	c7,0,11.7-3.1,11.7-8.9c0-6.4-4.7-9.3-11.7-9.3H171.7z"/>
<path class="st0" d="M345.7,415.7l0.1-1.1c5.6-1.6,8.6-5.2,9.5-12.8l6.2-49.1c1-7.5-1-11.8-6-14.7l0.1-1.1l38.1,4.8l-0.1,1.1
	c-5.6,1.6-8.6,5.2-9.5,12.8l-6.2,49.1c-1,7.5,1,11.8,6,14.7l-0.1,1.1L345.7,415.7z"/>
<path class="st0" d="M2.9,683.5l0.2-1.1c5.2-0.8,8.7-5.3,9.8-12.6L20,621c1.1-7.5-0.7-12.4-5.7-15l0.2-1.1l53.6,7.9
	c11.2,1.7,13.9,0.4,13.9,0.4l1.4,24l-1.1,0.2c-2-2.1-5.2-4.9-13.6-6.1L42,627.3l-2.6,17.3c3.3-4.8,9.8-7.5,17.7-6.3
	c10.4,1.5,16.7,8.2,15.5,16.3c-1,6.7-7.2,9.4-13,8.5c0.5-3.1-1.4-6.6-7.2-7.5c-7.6-1.1-15.4,4.5-16.8,14.4l27.9,4.1
	c7.8,1.1,12.4-1.3,16-3.7l0.8,0.6l-8.4,25c0,0-3.2-2.8-14.5-4.4L2.9,683.5z"/>
<path class="st0" d="M372.4,686.1l-0.2-1.1c5-3,6.9-7.3,5.8-14.8l-7.1-49c-1-6.6-3.7-10.9-9.8-12.6l-0.2-1.1l49.8-7.3
	c22.1-3.2,35.4,6.8,37.6,21.7c1.9,13-6.6,24.7-21.8,26.9c-0.7,0.1-1.5,0.2-2.3,0.2c5.3,2.4,10.1,4.6,15.3,3.9
	c4.3-0.6,5.5-4.2,5.5-4.2c3.5,1.1,8.2,4,9.1,10.3c1.3,8.9-3.2,17.3-15.5,19.1c-18.7,2.7-27-23.9-40.1-25l2,13.8
	c1.1,7.5,4.1,11.1,9.8,12.6l0.2,1.1L372.4,686.1z M393.7,621l2.6,18l19.2-2.8c7-1,11.1-4.7,10.3-10.5c-0.9-6.3-6-8.5-12.9-7.5
	L393.7,621z"/>
</svg>
